<svg id="Layer_1" enable-background="new 0 0 512 512" height="512" viewBox="0 0 512 512" width="512" xmlns="http://www.w3.org/2000/svg"><circle cx="256" cy="87.3" r="87.3"/><path d="m400.6 353.467h-.016-89.459-116.059l72.791 29.116c9.951-4.054 20.626-6.156 31.535-6.156 7.754 0 15.469 1.08 22.93 3.208l44.295 12.656c46.505 13.295 78.983 56.353 78.983 104.709 0 .32-.018.635-.024.954 20.697-14.318 34.291-38.211 34.291-65.236 0-43.699-35.552-79.251-79.267-79.251z"/><path d="m358.374 421.137-44.283-12.653c-15.341-4.376-31.661-1.651-44.623 7.054l-32.735-13.094v109.556h163.867c8.284 0 15-6.716 15-15 0-35.035-23.53-66.23-57.226-75.863z"/><path d="m111.4 353.467c-43.978 0-79.591 35.814-79.264 79.868.324 43.706 36.552 78.665 80.259 78.665h94.338v-121.555l-89.763-35.905c-1.771-.709-5.57-1.073-5.57-1.073z"/><path d="m456.833 273.133h-41.233v-33.2c0-36.371-20.477-68.046-50.504-84.114.104 1.248.171 2.506.171 3.781v144.6c0 10.624 8.643 19.267 19.267 19.267h16.051c37.595 0 70.81 19.073 90.482 48.046 12.739-10.114 20.933-25.72 20.933-43.213 0-30.419-24.748-55.167-55.167-55.167z"/><path d="m111.416 323.467h16.051c10.624 0 19.267-8.643 19.267-19.267v-144.6c0-1.274.066-2.533.171-3.781-30.029 16.069-50.505 47.743-50.505 84.114v33.2h-41.233c-30.419 0-55.167 24.748-55.167 55.167 0 17.493 8.194 33.099 20.934 43.213 19.672-28.973 52.887-48.046 90.482-48.046z"/><path d="m256 204.6c-30.533 0-58.375-11.73-79.267-30.917v130.517c0 6.833-1.401 13.345-3.927 19.267h166.387c-2.526-5.921-3.927-12.433-3.927-19.267v-130.516c-20.891 19.186-48.733 30.916-79.266 30.916z"/></svg>