<svg id="Layer_1" enable-background="new 0 0 512 512" height="512" viewBox="0 0 512 512" width="512" xmlns="http://www.w3.org/2000/svg"><path d="m214.372 137.04c9.67-31.561 39.075-54.58 73.762-54.58h14.919c.053-1.06.081-2.127.081-3.2 0-34.849-28.352-63.2-63.2-63.2s-63.2 28.351-63.2 63.2c-.001 25.753 15.491 47.943 37.638 57.78z"/><path d="m464.866 112.46h-176.732c-26.074 0-47.134 21.109-47.134 47.133 0 26.023 21.047 47.133 47.134 47.133h176.732c26.127 0 47.134-21.149 47.134-47.133 0-26.073-21.112-47.133-47.134-47.133z"/><path d="m146.733 159.593c0-13.86 3.697-26.861 10.127-38.11-1.491-2.922-2.828-5.934-4.01-9.023h-105.717c-26.07 0-47.133 21.108-47.133 47.133 0 25.989 21.144 47.133 47.133 47.133h99.6z"/><path d="m146.733 286.263v-13.136h-3.2c-43.778 0-79.267 35.489-79.267 79.267v33.206h94.267v-18.207h32.761l-18.703-18.704c-16.673-16.666-25.858-38.837-25.858-62.426z"/><path d="m64.267 448.793c0 26.02 21.044 47.133 47.133 47.133 26.075 0 47.133-21.1 47.133-47.133v-33.193h-94.266z"/><path d="m391.631 391.994-66.656 66.657 23.471 23.471c18.399 18.399 48.209 18.448 66.657 0 18.438-18.438 18.408-48.248 0-66.656z"/><path d="m325.357 325.722c-10.727-10.73-17.845-24.105-20.747-38.655h-127.857c.206 15.272 6.234 29.597 17.051 40.41l109.958 109.961 66.655-66.656z"/><path d="m303.134 236.727h-15c-39.694 0-72.469-30.142-76.668-68.736-12.513-4.026-23.889-10.612-33.483-19.166-.808 3.461-1.249 7.062-1.249 10.769v97.473h126.4z"/></svg>