<svg id="Layer_1" enable-background="new 0 0 512 512" height="512" viewBox="0 0 512 512" width="512" xmlns="http://www.w3.org/2000/svg"><g><path d="m161.89 183.247 159.775 92.256c24.842 14.338 56.557 5.839 70.899-19.004 14.354-24.866 5.827-56.563-18.995-70.891l-159.774-92.242c-24.47-14.149-56.378-6.169-70.901 18.992-14.353 24.866-5.826 56.561 18.996 70.889z"/><path d="m441.651 107.989c-29.672 0-55.098 18.473-65.419 44.516l44.399 25.627c24.519 14.165 42.452 37.205 50.278 64.157 24.221-11.126 41.091-35.598 41.091-63.951 0-38.791-31.559-70.349-70.349-70.349z"/><path d="m137.004 219.457s0-.001.001-.001l6.944-12.027c-33.884-21.486-46.909-64.366-31.622-100.774-18.043-.012-35.495 9.424-45.042 25.96l-20.185 34.96 89.896 51.897z"/><path d="m418.546 271.497c-14.591 25.273-41.783 40.973-70.966 40.973-14.314 0-28.461-3.798-40.912-10.985l-14.7-8.488c-10.168 11.534-24.219 19.205-39.443 21.514l-64.125 111.079h85.125c22.219 0 78.862-5.948 119.757-58.666l35.355-45.575c22.653-29.212 21.444-68.66.731-96.242 1.1 16.072-2.58 32.114-10.822 46.39z"/><path d="m192.31 296.611c-15.822-9.136-34.222-13.166-52.366-11.544l-30.613-17.675 12.666-21.94-89.897-51.898-20.164 34.922c-11.86 20.541-15.011 44.472-8.871 67.385 6.139 22.912 20.831 42.06 41.369 53.916l114.822 66.293 57.148-98.994c-6.722-8.155-14.863-15.135-24.094-20.465z"/></g></svg>