<svg id="Layer_1" enable-background="new 0 0 512 512" height="512" viewBox="0 0 512 512" width="512" xmlns="http://www.w3.org/2000/svg"><g><path d="m511.442 247.957c-3.172-11.372-10.517-21.326-20.816-27.698-14.027-8.664-31.544-9.451-46.29-2.078l-3.787 1.893.002 15.475c0 24.391-5.803 48.318-16.838 69.921l79.973-39.987c6.454-3.225 9.695-10.577 7.756-17.526z"/><path d="m391.275 109.524c-21.457 6.282-38.532 22.798-45.607 43.901l13.281 13.28c8.498 8.496 13.177 19.795 13.177 31.816v126.654c24.151-23.007 38.425-55.224 38.425-89.622l-.011-111.601c-.001-10.031-9.639-17.247-19.265-14.428z"/><path d="m242.501 92.694c-2.664-2.663-6.01-4.078-9.406-4.345 10.786 29.245 7.562 61.902-8.377 88.424 1.78 2.267 3.684 4.448 5.743 6.507l43.24 43.241v68.425l-85.531 34.213-40.294-80.579c-6.586-13.172-4.003-29.081 6.406-39.49l33.888-33.896c23.674-23.667 27.575-59.619 11.704-87.335-4.946-8.637-16.693-10.299-23.732-3.261l-93.552 93.548c-30.979 30.98-48.377 72.993-48.377 116.793v.009h-19.213c-8.284 0-15 6.716-15 15v106.851c0 8.284 6.716 15 15 15h148.981c4.657 0 9.251-1.084 13.417-3.167l156.437-78.219c5.082-2.541 8.292-7.735 8.292-13.416v-138.476c0-3.979-1.576-7.789-4.389-10.602z"/></g></svg>