<svg id="Layer_1" enable-background="new 0 0 512 512" height="512" viewBox="0 0 512 512" width="512" xmlns="http://www.w3.org/2000/svg"><path d="m111.399 94.267h112.466c8.284 0 15-6.716 15-15s-6.716-15-15-15h-112.466c-9.393 0-17.134-7.577-17.134-17.149 0-9.438 7.679-17.117 17.134-17.117 8.284 0 14.992-6.716 14.992-15s-6.724-15-15.008-15c-25.981-.001-47.118 21.136-47.118 47.132 0 26.023 21.038 47.134 47.134 47.134z"/><path d="m273.132 79.267c0 8.284 6.716 15 15 15h112.466c9.307 0 17.134 7.538 17.134 17.133 0 9.447-7.687 17.133-17.134 17.133h-112.482c-25.98 0-47.117 21.137-47.117 47.133 0 8.284 6.716 14.992 15 14.992s15-6.724 15-15.008c0-9.438 7.679-17.117 17.117-17.117h112.482c25.989 0 47.134-21.144 47.134-47.133 0-26.439-21.543-47.133-47.134-47.133h-112.466c-8.284 0-15 6.715-15 15z"/><path d="m175.666 30h160.666c8.284 0 15-6.716 15-15s-6.716-15-15-15h-160.666c-8.284 0-15 6.716-15 15s6.715 15 15 15z"/><path d="m368.458 289.2c-7.4 0-53.385-2.674-65.75-52.811-1.635-6.723-7.656-11.456-14.575-11.456h-64.268c-6.859 0-12.845 4.654-14.537 11.302-12.851 50.613-58.323 52.965-65.796 52.965h-.016c-56.531 0-103.068 41.963-110.378 96.4h445.723c-7.31-54.518-53.956-96.4-110.403-96.4z"/><path d="m143.532 512h224.934c56.339 0 103.037-42.042 110.386-96.4h-445.706c7.349 54.358 54.047 96.4 110.386 96.4z"/></svg>