<svg id="Layer_1" enable-background="new 0 0 512 512" height="512" viewBox="0 0 512 512" width="512" xmlns="http://www.w3.org/2000/svg"><path d="m511.908 400.325c-.008-8.286-6.733-14.996-15.019-14.986l-34.196.04v-105.978c0-2.329-.542-4.625-1.583-6.708l-127.94-255.88c-5.187-10.371-15.611-16.813-27.203-16.813-19.281 0-34.967 15.686-34.967 34.967 0 32.912 7.78 65.866 22.497 95.297l82.869 165.739.106 104.505c.01 8.524-7.092 15.397-15.706 15.002-8.069-.37-14.284-7.312-14.294-15.389l-.044-35.71c-.052-41.605-33.821-75.291-75.427-75.239l-.171 137.6c.058 47.13 38.652 85.286 85.781 85.227l140.408-.193c8.283-.01 14.989-6.732 14.981-15.014z"/><path d="m165.574 364.412-.044 35.71c-.01 8.077-6.226 15.019-14.294 15.389-8.614.395-15.717-6.478-15.706-15.002l.106-104.505 82.869-165.739c14.715-29.432 22.495-62.386 22.495-95.298 0-19.281-15.686-34.967-34.967-34.967-11.593 0-22.017 6.442-27.204 16.813l-127.94 255.88c-1.041 2.083-1.584 4.379-1.584 6.708v105.978l-34.196-.04c-8.286-.01-15.011 6.7-15.019 14.986l-.09 96.467c-.008 8.283 6.699 15.004 14.981 15.014l140.409.194c47.129.058 85.723-38.098 85.781-85.227l-.171-137.6c-41.605-.052-75.375 33.634-75.426 75.239z"/></svg>