<svg id="Layer_1" enable-background="new 0 0 512 512" height="512" viewBox="0 0 512 512" width="512" xmlns="http://www.w3.org/2000/svg"><g><path d="m221.733 257.051c0 9.471 7.679 17.149 17.117 17.149h65.008l-67.981-33.991c-8.023 1.414-14.144 8.419-14.144 16.842z"/><path d="m352.4 208.867c0-27.166-22.101-49.267-49.267-49.267s-49.267 22.101-49.267 49.267v1.067h98.534z"/><circle cx="303.133" cy="104.433" r="25.167"/><path d="m464.867.001-338.467-.001v417.733h338.467c8.284 0 15-6.716 15-15v-387.732c0-8.284-6.716-15-15-15zm-65.334 368.466h-192.8c-8.284 0-15-6.716-15-15s6.716-15 15-15h192.8c8.284 0 15 6.716 15 15s-6.716 15-15 15zm15-111.384c0 25.98-21.137 47.117-47.117 47.117h-128.565c-25.98 0-47.117-21.137-47.117-47.117 0-20.768 13.479-38.415 32.133-44.692v-3.524c0-28.654 15.284-53.804 38.127-67.731-8.716-9.759-14.027-22.62-14.027-36.702 0-30.419 24.748-55.167 55.167-55.167s55.166 24.747 55.166 55.166c0 14.083-5.311 26.944-14.027 36.702 22.843 13.926 38.127 39.077 38.127 67.731v3.524c18.654 6.276 32.133 23.918 32.133 44.66z"/><path d="m367.416 239.933h-65.008l67.981 33.991c8.024-1.414 14.144-8.418 14.144-16.841v-.032c0-9.439-7.678-17.118-17.117-17.118z"/><path d="m96.4 417.733v-417.733h-17.133c-25.99 0-47.134 21.144-47.134 47.133v392.434c11.441-13.337 28.383-21.834 47.133-21.834z"/><path d="m79.898 447.733c-17.974.005-33.065 14.716-32.759 32.689.297 17.463 14.595 31.578 32.128 31.578h385.6c8.284 0 15-6.716 15-15v-51.847c-4.695 1.665-9.742 2.58-15 2.58z"/></g></svg>