<svg id="Layer_1" enable-background="new 0 0 512 512" height="512" viewBox="0 0 512 512" width="512" xmlns="http://www.w3.org/2000/svg"><g><path d="m448.8 0h-385.6c-8.284 0-15 6.716-15 15v34.267h415.6v-34.267c0-8.284-6.716-15-15-15z"/><path d="m48.2 110.894c0 65.139 5.428 130.733 16.134 194.96 14.034 84.23 32.27 193.613 32.27 193.613 1.206 7.232 7.463 12.533 14.796 12.533h80.333c7.202 0 13.388-5.119 14.735-12.194 0 0 30.556-160.447 49.527-260.049l49.536 260.05c1.348 7.075 7.533 12.193 14.735 12.193h80.334c7.333 0 13.591-5.301 14.796-12.534l32.262-193.611c10.711-64.259 16.142-129.854 16.142-194.961v-31.627h-415.6z"/></g></svg>