<svg id="Layer_1" enable-background="new 0 0 512 512" height="512" viewBox="0 0 512 512" width="512" xmlns="http://www.w3.org/2000/svg"><path d="m346.841 475.325c-8.118 11.101-17.292 20.87-26.241 29.16 18.423 5.461 32.39 7.281 33.352 7.402.231.029 8.275 1.336 13.724-5.686.594-.766 9.182-11.928 18.346-28.814-2.927.115-5.92.179-8.965.179-10.551-.001-20.649-.751-30.216-2.241z"/><path d="m165.159 475.325c-9.566 1.489-19.665 2.239-30.214 2.24-3.045 0-6.038-.063-8.964-.178 9.164 16.886 17.751 28.048 18.345 28.814 5.449 7.021 13.492 5.715 13.724 5.686.961-.121 14.927-1.94 33.349-7.401-8.949-8.29-18.122-18.058-26.24-29.161z"/><path d="m7.52 320.611c-5.46 18.419-7.281 32.381-7.402 33.343-.663 5.259 1.499 10.478 5.687 13.727.766.594 11.926 9.178 28.81 18.339-.466-12.188-.045-25.582 2.066-39.173-11.103-8.117-20.872-17.289-29.161-26.236z"/><path d="m504.48 320.608c-8.29 8.948-18.058 18.121-29.159 26.238 2.111 13.591 2.532 26.985 2.067 39.173 16.884-9.161 28.043-17.744 28.808-18.338 4.188-3.25 6.35-8.468 5.687-13.727-.122-.961-1.942-14.925-7.403-33.346z"/><path d="m7.52 191.394c8.289-8.947 18.058-18.12 29.162-26.238-2.111-13.591-2.533-26.985-2.068-39.173-16.885 9.164-28.045 17.751-28.811 18.345-4.187 3.25-6.347 8.467-5.685 13.725.121.963 1.942 14.924 7.402 33.341z"/><path d="m504.482 191.391c5.459-18.415 7.279-32.375 7.4-33.337.663-5.258-1.498-10.476-5.685-13.725-.766-.594-11.926-9.182-28.812-18.346.466 12.189.045 25.583-2.065 39.173 11.105 8.117 20.874 17.289 29.162 26.235z"/><path d="m165.159 36.675c8.116-11.099 17.286-20.865 26.231-29.153-18.416-5.46-32.376-7.282-33.338-7.403-5.259-.666-10.477 1.498-13.728 5.685-.594.766-9.179 11.925-18.341 28.809 2.926-.115 5.917-.178 8.961-.178 10.55 0 20.648.75 30.215 2.24z"/><path d="m346.841 36.676c9.567-1.49 19.665-2.24 30.215-2.24 3.044 0 6.036.064 8.962.178-9.163-16.884-17.749-28.044-18.343-28.81-3.249-4.187-8.463-6.35-13.728-5.685-.961.121-14.923 1.943-33.341 7.405 8.947 8.288 18.119 18.054 26.235 29.152z"/><path d="m256 65.777c8.703-4.746 18.316-8.86 28.761-12.303 13.737-4.529 25.596-6.744 31.148-7.629-22.435-26.525-50.79-42.913-52.48-43.877-4.604-2.624-10.252-2.625-14.857 0-1.69.964-30.045 17.352-52.479 43.877 5.559.886 17.419 3.102 31.149 7.629 10.442 3.443 20.055 7.558 28.758 12.303z"/><path d="m92.456 133.132c9.819-4.951 19.526-8.839 29.036-11.639 2.799-9.509 6.688-19.217 11.639-29.036 6.52-12.932 13.329-22.869 16.63-27.42-34.62-2.892-66.258 5.571-68.135 6.085-5.111 1.4-9.105 5.394-10.505 10.505-.514 1.877-8.975 33.514-6.083 68.134 4.546-3.298 14.486-10.109 27.418-16.629z"/><path d="m362.241 65.038c3.302 4.555 10.119 14.507 16.63 27.418 4.952 9.821 8.84 19.527 11.64 29.038 9.51 2.799 19.216 6.688 29.035 11.639 12.929 6.518 22.868 13.328 27.419 16.628 2.892-34.619-5.57-66.257-6.084-68.134-1.399-5.111-5.393-9.105-10.504-10.505-1.877-.514-33.517-8.976-68.136-6.084z"/><path d="m53.475 227.239c-4.53-13.741-6.744-25.593-7.628-31.145-26.525 22.435-42.914 50.787-43.878 52.478-2.625 4.604-2.625 10.252 0 14.856.964 1.691 17.351 30.047 43.877 52.482.884-5.551 3.098-17.404 7.629-31.149 3.442-10.444 7.557-20.058 12.302-28.761-4.745-8.703-8.86-18.317-12.302-28.761z"/><path d="m510.033 263.428c2.624-4.604 2.624-10.252-.001-14.856-.963-1.69-17.351-30.042-43.876-52.477-.881 5.542-3.091 17.376-7.629 31.144-3.442 10.443-7.557 20.057-12.302 28.761 4.745 8.704 8.859 18.318 12.302 28.762 4.537 13.763 6.746 25.593 7.63 31.148 26.524-22.435 42.912-50.791 43.876-52.482z"/><path d="m419.548 378.871c-9.82 4.952-19.528 8.841-29.038 11.641-2.8 9.509-6.688 19.215-11.639 29.035-6.502 12.895-13.336 22.869-16.631 27.417 34.619 2.892 66.259-5.571 68.136-6.084 5.111-1.4 9.104-5.394 10.504-10.505.514-1.877 8.976-33.515 6.084-68.135-4.559 3.304-14.513 10.124-27.416 16.631z"/><path d="m256 446.227c-8.705 4.745-18.318 8.859-28.763 12.301-13.737 4.528-25.594 6.743-31.144 7.627 22.435 26.525 50.789 42.913 52.479 43.876 2.303 1.313 4.865 1.969 7.429 1.969 2.563 0 5.126-.656 7.429-1.968 1.69-.964 30.045-17.352 52.48-43.877-5.555-.885-17.406-3.099-31.146-7.627-10.445-3.442-20.061-7.557-28.764-12.301z"/><path d="m149.759 446.963c-3.3-4.549-10.11-14.487-16.628-27.415-4.951-9.819-8.84-19.527-11.639-29.037-9.51-2.799-19.219-6.689-29.038-11.641-12.893-6.501-22.868-13.337-27.416-16.633-2.893 34.62 5.569 66.259 6.083 68.136 1.4 5.111 5.394 9.105 10.505 10.505 1.875.515 33.514 8.976 68.133 6.085z"/><path d="m436.859 189.127c.663-5.259-1.498-10.477-5.686-13.726-.422-.328-10.502-8.104-25.134-15.481-14.347-7.233-28.003-11.638-40.787-13.171-1.531-12.783-5.936-26.44-13.169-40.786-7.378-14.632-15.155-24.713-15.482-25.135-3.25-4.187-8.469-6.35-13.726-5.686-.53.067-13.159 1.694-28.723 6.825-15.259 5.03-28.03 11.573-38.152 19.531-10.123-7.958-22.894-14.501-38.152-19.531-15.563-5.131-28.191-6.758-28.721-6.825-5.265-.663-10.477 1.499-13.726 5.686-.328.422-8.105 10.503-15.483 25.135-7.233 14.347-11.638 28.003-13.169 40.787-12.783 1.533-26.442 5.938-40.787 13.17-14.631 7.377-24.712 15.154-25.134 15.481-4.187 3.25-6.349 8.467-5.686 13.726.067.53 1.695 13.158 6.825 28.721 5.029 15.258 11.572 28.03 19.529 38.153-7.957 10.123-14.5 22.895-19.529 38.153-5.13 15.563-6.758 28.19-6.825 28.721-.663 5.257 1.498 10.475 5.684 13.725.422.327 10.503 8.107 25.135 15.485 14.347 7.234 28.004 11.639 40.788 13.17 1.531 12.784 5.936 26.441 13.169 40.787 7.377 14.631 15.156 24.711 15.483 25.133 2.862 3.687 7.249 5.803 11.847 5.802.623 0 1.25-.039 1.877-.118.53-.067 13.158-1.694 28.72-6.824 15.259-5.029 28.031-11.571 38.153-19.527 10.122 7.956 22.895 14.499 38.153 19.527 15.563 5.129 28.191 6.757 28.722 6.824 5.255.662 10.475-1.499 13.725-5.685.327-.422 8.105-10.502 15.483-25.134 7.232-14.345 11.638-28.003 13.169-40.787 12.784-1.531 26.441-5.936 40.788-13.17 14.632-7.378 24.713-15.158 25.135-15.485 4.186-3.25 6.347-8.467 5.684-13.725-.066-.53-1.694-13.158-6.824-28.72-5.029-15.258-11.573-28.03-19.529-38.153 7.956-10.123 14.5-22.895 19.529-38.153 5.131-15.562 6.759-28.19 6.826-28.72zm-180.859 192.207c-69.109 0-125.333-56.225-125.333-125.333s56.224-125.334 125.333-125.334c69.108 0 125.333 56.225 125.333 125.334s-56.224 125.333-125.333 125.333z"/><ellipse cx="256" cy="256" rx="95.334" ry="95.333" transform="matrix(.383 -.924 .924 .383 -78.48 394.547)"/></svg>