<svg id="Layer_1" enable-background="new 0 0 512 512" height="512" viewBox="0 0 512 512" width="512" xmlns="http://www.w3.org/2000/svg"><path d="m472.366 105.734h-129.631c7.314 12.16 11.531 26.384 11.531 41.578v37.689h118.1c21.854 0 39.634-17.779 39.634-39.633s-17.78-39.634-39.634-39.634z"/><path d="m157.733 147.313c0-15.194 4.217-29.419 11.531-41.578h-129.63c-21.854-.001-39.634 17.779-39.634 39.633s17.78 39.633 39.634 39.633h118.1v-37.688z"/><path d="m256 477.193c0 19.14 15.663 35.167 34.799 34.801 18.544-.355 33.467-15.498 33.467-34.127v-31.2h-68.266z"/><path d="m191.733 354.267h34.267v38.267h-34.267z"/><path d="m119.467 324.267c0 28.494 17.461 52.901 42.267 63.128v-48.128c0-8.284 6.716-15 15-15h64.266c8.284 0 15 6.716 15 15v77.4h68.267v-160.667h-136.534c-37.709 0-68.266 30.567-68.266 68.267z"/><path d="m256 156.4c-25.334 0-48.336-10.165-65.152-26.626-2.014 5.47-3.115 11.378-3.115 17.538v78.688h136.533v-78.688c0-6.16-1.101-12.068-3.115-17.538-16.815 16.46-39.817 26.626-65.151 26.626z"/><circle cx="256" cy="63.2" r="63.2"/></svg>