<svg id="Layer_1" enable-background="new 0 0 512 512" height="512" viewBox="0 0 512 512" width="512" xmlns="http://www.w3.org/2000/svg"><path d="m399.391 144.6h-201.525c33.279 25.816 54.778 65.932 54.933 110.902.131 37.867-14.515 73.491-41.24 100.309-4.142 4.156-8.497 8.022-13.04 11.589h202.081c61.656 0 111.613-50.089 111.399-111.794-.213-61.568-51.04-111.006-112.608-111.006z"/><path d="m94.267 145.935v220.131c5.64.872 11.359 1.334 17.134 1.334s11.493-.462 17.133-1.334v-220.131c-5.64-.872-11.359-1.334-17.133-1.334-5.775-.001-11.494.461-17.134 1.334z"/><path d="m0 256c0 43.481 25.431 82.771 64.267 100.929v-201.858c-38.836 18.158-64.267 57.448-64.267 100.929z"/><path d="m158.533 155.071v201.858c38.836-18.159 64.267-57.449 64.267-100.929s-25.431-82.77-64.267-100.929z"/></svg>