<svg id="Layer_1" enable-background="new 0 0 512 512" height="512" viewBox="0 0 512 512" width="512" xmlns="http://www.w3.org/2000/svg"><g><path d="m256 241c66.444 0 120.5-54.056 120.5-120.5s-54.056-120.5-120.5-120.5c-141.408 0-256 114.415-256 256 0 118.394 75.083 193.889 136.049 226.3-19.166-25.256-30.549-56.722-30.549-90.8 0-82.986 67.514-150.5 150.5-150.5zm0-180.667c33.176 0 60.167 26.991 60.167 60.167s-26.991 60.167-60.167 60.167-60.167-26.991-60.167-60.167 26.991-60.167 60.167-60.167z"/><path d="m375.956 29.707c19.161 25.253 30.544 56.72 30.544 90.793 0 82.986-67.514 150.5-150.5 150.5-66.444 0-120.5 54.056-120.5 120.5s54.056 120.5 120.5 120.5c141.409 0 256-114.415 256-256 0-118.386-75.085-193.881-136.044-226.293zm-119.956 421.96c-33.176 0-60.167-26.991-60.167-60.167s26.991-60.167 60.167-60.167 60.167 26.991 60.167 60.167-26.991 60.167-60.167 60.167z"/><circle cx="256" cy="120.5" r="30.167"/><circle cx="256" cy="391.5" r="30.167"/></g></svg>