<svg id="Layer_1" enable-background="new 0 0 512 512" height="512" viewBox="0 0 512 512" width="512" xmlns="http://www.w3.org/2000/svg"><g><path d="m353.471 353.465v-194.933h-194.934v194.934h194.934zm-174.828-153.193c2.683-4.626 7.627-7.474 12.975-7.474h128.653c5.349 0 10.292 2.848 12.976 7.474s2.7 10.331.045 14.974l-64.332 112.467c-2.672 4.67-7.641 7.552-13.021 7.552-5.381 0-10.35-2.882-13.021-7.553l-64.322-112.466c-2.655-4.642-2.637-10.348.047-14.974z"/><path d="m128.537 361.943v-211.889c-23.939 28.752-38.36 65.694-38.36 105.944s14.421 77.193 38.36 105.945z"/><path d="m294.41 222.799h-76.934l38.464 67.254z"/><path d="m256.003 90.176c-40.249 0-77.191 14.419-105.943 38.355h211.881c-28.75-23.936-65.69-38.355-105.938-38.355z"/><path d="m256.003 421.821c40.248 0 77.188-14.419 105.939-38.356h-211.881c28.752 23.937 65.693 38.356 105.942 38.356z"/><path d="m475.542 256c1.478-1.123 2.877-2.317 4.152-3.592 25.225-25.224 36.954-59.274 30.611-88.862-13.377-62.348-26.551-123.786-26.551-123.786-1.238-5.773-5.748-10.283-11.521-11.521l-123.779-26.543c-29.59-6.345-63.643 5.383-88.862 30.602-1.275 1.276-2.468 2.674-3.592 4.153-1.124-1.479-2.317-2.878-3.592-4.153-25.22-25.219-59.272-36.947-88.862-30.602l-123.779 26.542c-5.773 1.238-10.283 5.748-11.521 11.521 0 0-13.174 61.438-26.551 123.787-6.343 29.588 5.387 63.638 30.611 88.862 1.275 1.275 2.673 2.468 4.152 3.592-1.478 1.123-2.877 2.317-4.152 3.592-25.224 25.223-36.954 59.274-30.611 88.862 13.377 62.348 26.551 123.786 26.551 123.786 1.238 5.773 5.748 10.283 11.521 11.521l123.778 26.542c29.59 6.345 63.643-5.383 88.862-30.602 1.275-1.276 2.468-2.674 3.592-4.153 1.124 1.479 2.317 2.878 3.592 4.153 25.22 25.219 59.272 36.947 88.862 30.602l123.778-26.542c5.773-1.238 10.283-5.748 11.521-11.521 0 0 13.174-61.438 26.551-123.787 6.343-29.588-5.387-63.638-30.611-88.862-1.274-1.274-2.672-2.468-4.15-3.591zm-219.538 195.821c-107.979 0-195.826-87.846-195.826-195.822s87.847-195.823 195.826-195.823c107.975 0 195.819 87.846 195.819 195.822s-87.844 195.823-195.819 195.823z"/><path d="m383.471 361.936c23.934-28.751 38.352-65.69 38.352-105.937s-14.417-77.186-38.352-105.937z"/></g></svg>