<svg id="Layer_1" enable-background="new 0 0 512 512" height="512" viewBox="0 0 512 512" width="512" xmlns="http://www.w3.org/2000/svg"><g><path d="m63.2 96.4c-34.848 0-63.2 28.351-63.2 63.2s28.352 63.2 63.2 63.2c1.073 0 2.14-.028 3.2-.081v-47.069c0-27.45 11.933-52.163 30.881-69.231-9.841-6.329-21.535-10.019-34.081-10.019z"/><path d="m143.533 160.667c-25.989 0-47.133 21.144-47.133 47.133v160.668c0 25.989 21.144 47.132 47.133 47.132s47.133-21.143 47.133-47.132v-160.669c0-25.989-21.144-47.132-47.133-47.132z"/><path d="m159.6 112.467h-.016c-21.438 0-40.369 10.687-51.793 27.013 10.693-5.617 22.848-8.813 35.742-8.813 42.531 0 77.133 34.602 77.133 77.133v48.962l38.534 14.45v-128.44l-63.23-23.711c-11.674-4.376-23.91-6.594-36.37-6.594z"/><path d="m464.868 321.334h-33.201v94.266h33.201c25.989 0 47.132-21.144 47.132-47.133s-21.143-47.133-47.132-47.133z"/><path d="m383.467 254.458c0-43.833-29.697-81.863-72.218-92.484l-22.049-7.952v182.312c0 43.778 35.489 79.267 79.267 79.267h33.2v-94.266h-18.2z"/></g></svg>