<svg id="Layer_1" enable-background="new 0 0 512 512" height="512" viewBox="0 0 512 512" width="512" xmlns="http://www.w3.org/2000/svg"><g><path d="m400.6 0h-257.067c-43.708 0-79.266 35.559-79.266 79.267v230.283c15.973-14.34 37.072-23.077 60.176-23.077h300.702c8.081 0 15.74 1.836 22.588 5.107v-244.447c0-26.43-21.526-47.133-47.133-47.133z"/><path d="m124.443 361.649h300.702c12.455 0 22.588-10.133 22.588-22.588 0-12.664-10.321-22.588-22.588-22.588h-300.702c-33.181 0-60.176 26.995-60.176 60.176 0 33.239 26.883 60.175 60.176 60.175h263.114c8.284 0 15 6.716 15 15s-6.716 15-15 15h-301.191c-12.218 0-22.099 9.873-22.099 22.1v.019c0 12.714 10.344 23.058 23.058 23.058h300.232c33.181 0 60.176-26.995 60.176-60.176 0-32.876-26.577-60.175-60.176-60.175h-263.114c-8.284 0-15-6.716-15-15s6.716-15.001 15-15.001z"/></g></svg>