<svg id="Layer_1" enable-background="new 0 0 512 512" height="512" viewBox="0 0 512 512" width="512" xmlns="http://www.w3.org/2000/svg"><g><path d="m81.4 64.267c8.284 0 15-6.716 15-15v-34.267c0-8.284-6.716-15-15-15s-15 6.716-15 15v34.267c0 8.284 6.716 15 15 15z"/><path d="m314.2 64.267c8.284 0 15-6.716 15-15v-34.267c0-8.284-6.716-15-15-15s-15 6.716-15 15v34.267c0 8.284 6.716 15 15 15z"/><path d="m197.8 64.267c8.284 0 15-6.716 15-15v-34.267c0-8.284-6.716-15-15-15s-15 6.716-15 15v34.267c0 8.284 6.716 15 15 15z"/><path d="m497 32.133h-21.4v17.133c0 24.813-20.187 45-45 45s-45-20.187-45-45v-17.133h-26.4v17.133c0 24.813-20.187 45-45 45s-45-20.187-45-45v-17.133h-26.4v17.133c0 24.813-20.187 45-45 45s-45-20.187-45-45v-17.133h-26.4v17.133c0 24.813-20.187 45-45 45s-45-20.187-45-45v-17.133h-21.4c-8.284 0-15 6.716-15 15v96.4c0 8.284 6.716 15 15 15h482c8.284 0 15-6.716 15-15v-96.4c0-8.284-6.716-15-15-15z"/><path d="m430.6 64.267c8.284 0 15-6.716 15-15v-34.267c0-8.284-6.716-15-15-15s-15 6.716-15 15v34.267c0 8.284 6.715 15 15 15z"/><path d="m305.267 382.399c0-27.166-22.101-49.267-49.267-49.267s-49.267 22.101-49.267 49.267v1.067h98.533v-1.067z"/><circle cx="256" cy="277.966" r="25.167"/><path d="m191.717 447.733h65.008l-67.981-33.991c-8.024 1.414-14.144 8.418-14.144 16.841 0 9.471 7.679 17.15 17.117 17.15z"/><path d="m323.255 447.457c8.024-1.414 14.144-8.418 14.144-16.841v-.032c0-9.438-7.679-17.117-17.117-17.117h-65.008z"/><path d="m16.067 497c0 8.284 6.716 15 15 15h449.867c8.284 0 15-6.716 15-15v-308.467h-479.867zm160.666-111.077v-3.524c0-28.654 15.284-53.804 38.127-67.731-8.716-9.759-14.027-22.62-14.027-36.702 0-30.419 24.748-55.167 55.167-55.167s55.167 24.748 55.167 55.167c0 14.083-5.311 26.944-14.027 36.702 22.843 13.926 38.127 39.077 38.127 67.731v3.524c18.654 6.276 32.133 23.918 32.133 44.66v.032c0 25.98-21.137 47.117-47.117 47.117h-128.566c-25.98 0-47.117-21.137-47.117-47.117 0-20.767 13.479-38.415 32.133-44.692z"/></g></svg>