<svg id="Layer_1" enable-background="new 0 0 512 512" height="512" viewBox="0 0 512 512" width="512" xmlns="http://www.w3.org/2000/svg"><g><path d="m349.19 194.93h135.43c-16.09-29.93-47.72-50.33-84.02-50.33-23.56 0-45.14 8.59-61.79 22.8 5.11 8.28 8.7 17.58 10.38 27.53z"/><path d="m286 194.93h32.48c-4.57-16.07-17.46-28.66-33.69-32.8.78 4.4 1.21 8.92 1.21 13.54z"/><path d="m232.07 194.93h23.93v-19.26c0-25.99-21.14-47.14-47.13-47.14-10.75 0-20.67 3.63-28.6 9.71 24.62 10.62 43.49 31.49 51.8 56.69z"/><path d="m156.52 162.01c-5.87-19.35-23.88-33.48-45.12-33.48s-39.25 14.13-45.12 33.48c-18.82 3.94-34.59 16.29-43.19 32.92h176.62c-8.6-16.63-24.37-28.98-43.19-32.92z"/><path d="m159.6 94.267c8.284 0 15-6.716 15-15v-64.267c0-8.284-6.716-15-15-15s-15 6.716-15 15v64.267c0 8.284 6.716 15 15 15z"/><path d="m256 94.267c8.284 0 15-6.716 15-15v-64.267c0-8.284-6.716-15-15-15s-15 6.716-15 15v64.267c0 8.284 6.716 15 15 15z"/><path d="m352.4 94.267c8.284 0 15-6.716 15-15v-64.267c0-8.284-6.716-15-15-15s-15 6.716-15 15v64.267c0 8.284 6.716 15 15 15z"/><path d="m511.044 245.202c1.728-4.606 1.088-9.768-1.715-13.812-2.802-4.044-7.409-6.457-12.329-6.457h-482c-4.92 0-9.527 2.413-12.329 6.457-2.803 4.044-3.443 9.205-1.715 13.812 0 0 4.215 11.237 10.877 28.999h488.333c6.664-17.765 10.878-28.999 10.878-28.999z"/><path d="m469.711 355.407c6.768-18.049 13.353-35.605 19.204-51.207h-465.829c15.2 40.527 35.344 94.243 50.812 135.514 10.484 27.961 31.166 49.765 56.992 61.825-1.91-18.446 7.673-36.297 24.649-44.787l217.39-108.68c36.067-18.091 72.858-9.372 96.782 7.335z"/><path d="m486.079 432.734 21.527-21.527c5.858-5.857 5.858-15.355 0-21.213-5.857-5.858-15.355-5.857-21.213 0l-13.435 13.435c-15.384-30.278-53.713-45.027-86.615-28.523l-2.877 1.438v40.322c0 8.284-6.716 15-15 15s-15-6.716-15-15v-25.324l-34.266 17.131v40.327c0 8.284-6.716 15-15 15s-15-6.716-15-15v-25.329l-120.243 60.113c-6.222 3.111-9.487 10.092-7.889 16.863 1.599 6.77 7.643 11.553 14.599 11.553h224.933c32.469 0 61.286-19.869 73.306-49.014l12.488 12.487c5.856 5.856 15.355 5.859 21.213 0 5.858-5.858 5.858-15.355 0-21.213z"/></g></svg>