<svg id="Layer_1" enable-background="new 0 0 512 512" height="512" viewBox="0 0 512 512" width="512" xmlns="http://www.w3.org/2000/svg"><g><path d="m202.53 196.411h-55.727l27.834 48.208c3.49-19.181 13.605-36.071 27.893-48.208z"/><path d="m337.355 244.621 27.834-48.21h-55.724c14.287 12.137 24.401 29.028 27.89 48.21z"/><path d="m256 118.367c-42.179 0-80.088 18.61-105.964 48.044h211.923c-25.876-29.434-63.782-48.044-105.959-48.044z"/><path d="m122.385 214.116c-4.843 14.235-7.473 29.485-7.473 45.338 0 68.367 48.889 125.525 113.542 138.372l-53.037-91.853z"/><path d="m203.279 259.454c0 29.066 23.65 52.713 52.721 52.713 29.066 0 52.713-23.647 52.713-52.713 0-29.07-23.646-52.721-52.713-52.721-29.07 0-52.721 23.651-52.721 52.721z"/><path d="m256 342.167c-9.761 0-19.127-1.711-27.829-4.829l27.828 48.197 27.826-48.196c-8.701 3.117-18.065 4.828-27.825 4.828z"/><path d="m397.08 259.454c0-15.853-2.63-31.103-7.473-45.338l-106.064 183.71c64.651-12.847 113.537-70.004 113.537-138.372z"/><path d="m509.761 263.885c2.985-4.833 2.985-10.937 0-15.77-.537-.869-11.751-18.843-30.808-36.467 10.856-23.567 14.341-44.46 14.505-45.467.91-5.608-1.426-11.249-6.034-14.571-.828-.597-18.066-12.912-42.416-21.904 1.015-25.931-3.764-46.57-3.998-47.563-1.305-5.528-5.62-9.844-11.147-11.151-.993-.235-21.641-5.018-47.573-4.002-8.988-24.348-21.302-41.585-21.898-42.413-3.321-4.607-8.957-6.943-14.566-6.035-1.008.164-21.905 3.643-45.479 14.504-17.621-19.056-35.594-30.27-36.462-30.806-4.832-2.986-10.938-2.986-15.77 0-.868.536-18.842 11.75-36.466 30.807-23.576-10.864-44.474-14.342-45.481-14.505-5.608-.91-11.245 1.429-14.566 6.036-.597.828-12.91 18.065-21.898 42.413-25.924-1.018-46.58 3.767-47.573 4.002-5.527 1.307-9.843 5.623-11.147 11.151-.234.994-5.013 21.633-3.998 47.563-24.35 8.993-41.588 21.307-42.416 21.904-4.608 3.322-6.944 8.963-6.034 14.571.164 1.007 3.648 21.901 14.505 45.468-19.056 17.625-30.266 35.602-30.802 36.47-2.983 4.831-2.983 10.933 0 15.764.536.868 11.746 18.844 30.802 36.47-10.856 23.569-14.341 44.469-14.505 45.477-.91 5.609 1.428 11.25 6.037 14.572.828.596 18.064 12.904 42.413 21.895-1.015 25.93 3.764 46.569 3.998 47.563 1.305 5.528 5.62 9.844 11.147 11.151.994.235 21.646 5.018 47.573 4.002 8.988 24.348 21.302 41.585 21.898 42.413 3.321 4.607 8.959 6.945 14.566 6.036 1.008-.164 21.905-3.642 45.481-14.505 17.624 19.057 35.598 30.271 36.466 30.807 2.416 1.493 5.15 2.24 7.885 2.24s5.469-.747 7.885-2.24c.868-.537 18.841-11.75 36.46-30.806 23.574 10.862 44.472 14.341 45.479 14.504 5.607.907 11.245-1.428 14.566-6.035.597-.828 12.91-18.065 21.898-42.414 25.932 1.02 46.579-3.767 47.573-4.002 5.527-1.307 9.843-5.623 11.147-11.151.234-.993 5.013-21.632 3.998-47.563 24.349-8.991 41.585-21.298 42.413-21.895 4.609-3.322 6.947-8.963 6.037-14.572-.164-1.008-3.648-21.908-14.505-45.476 19.059-17.627 30.273-35.602 30.81-36.47zm-253.761 166.649c-94.338 0-171.088-76.746-171.088-171.08 0-94.338 76.75-171.087 171.088-171.087 94.334 0 171.08 76.75 171.08 171.087 0 94.334-76.746 171.08-171.08 171.08z"/></g></svg>