<svg id="Layer_1" enable-background="new 0 0 512 512" height="512" viewBox="0 0 512 512" width="512" xmlns="http://www.w3.org/2000/svg"><g><path d="m489.494 300.036c-21.974-10.99-63.134-31.568-77.271-38.637l-33.375-77.877c-3.273-7.639-7.924-14.391-13.581-20.034v67.393c20.539 25.13 32.125 57.168 32.133 89.691 0 .968-.024 1.93-.043 2.894h3.225c38.834 0 72.992 20.353 92.379 50.944 11.558-8.614 19.039-22.39 19.039-37.946 0-15.524-8.624-29.48-22.506-36.428z"/><path d="m400.598 353.467h-.016-7.058c-3.604 15.059-9.623 29.188-17.623 41.956 41.482 16.06 69.697 56.511 69.697 101.577 0 .32-.018.635-.024.954 20.697-14.318 34.291-38.212 34.291-65.237-.001-43.698-35.552-79.25-79.267-79.25z"/><path d="m256 431.968c51.03 0 94.156-34.501 107.29-81.404l-214.582.004c13.131 46.901 56.256 81.4 107.292 81.4z"/><path d="m358.372 421.137-2.39-.683c-25.608 25.634-60.976 41.513-99.982 41.513-6.536 0-12.966-.456-19.269-1.318v51.351h163.867c8.284 0 15-6.716 15-15 0-35.035-23.53-66.23-57.226-75.863z"/><path d="m111.418 323.467h3.225c-.02-.963-.043-1.926-.043-2.894.009-32.523 11.595-64.562 32.133-89.691v-67.393c-5.656 5.643-10.307 12.395-13.581 20.034l-33.375 77.877c-14.137 7.068-55.297 27.646-77.271 38.637-13.882 6.947-22.506 20.903-22.506 36.429 0 15.556 7.481 29.331 19.039 37.946 19.387-30.592 53.546-50.945 92.379-50.945z"/><path d="m335.267 242.326v-68.643c-20.892 19.186-48.734 30.917-79.267 30.917s-58.375-11.73-79.267-30.916v68.641c-20.501 20.781-32.133 48.922-32.133 78.243l222.8-.004c-.008-29.319-11.64-57.458-32.133-78.238z"/><circle cx="256" cy="87.3" r="87.3"/><path d="m118.473 353.467h-7.075c-43.978 0-79.591 35.814-79.264 79.868.323 43.706 36.551 78.665 80.259 78.665h94.338v-58.893c-43.712-16.302-77.254-53.64-88.258-99.64z"/></g></svg>