<svg id="Layer_1" enable-background="new 0 0 512 512" height="512" viewBox="0 0 512 512" width="512" xmlns="http://www.w3.org/2000/svg"><g><path d="m204.6 223.866v19.268h102.8v-19.268c0-5.01-.21-10.013-.582-15h-101.636c-.372 4.988-.582 9.99-.582 15z"/><path d="m497 208.866h-99.994c.258 4.992.394 9.994.394 15v19.268h35.333c24.813 0 45 20.187 45 45v47.133h19.267c8.284 0 15-6.716 15-15v-96.4c0-8.285-6.716-15.001-15-15.001z"/><path d="m34.267 288.134c0-24.813 20.187-45 45-45h35.333v-19.268c0-5.006.136-10.008.394-15h-99.994c-8.284 0-15 6.716-15 15v96.4c0 8.284 6.716 15 15 15h19.267z"/><path d="m447.733 390.871v-102.737c0-8.284-6.716-15-15-15h-35.333v76.959c9.818 8.262 16.067 20.635 16.067 34.44s-6.249 26.179-16.067 34.44v13.76c0 24.813-20.187 45-45 45s-45-20.187-45-45v-13.761c-9.818-8.261-16.066-20.634-16.066-34.439s6.248-26.179 16.066-34.439v-76.96h-102.8v76.96c9.818 8.261 16.066 20.634 16.066 34.439s-6.248 26.179-16.066 34.439v13.761c0 24.813-20.187 45-45 45s-45-20.187-45-45v-13.76c-9.818-8.262-16.067-20.635-16.067-34.44s6.249-26.179 16.067-34.44v-76.959h-35.333c-8.284 0-15 6.716-15 15v102.737c0 34.948-10.239 68.768-29.611 97.804-3.07 4.603-3.358 10.522-.748 15.4 2.609 4.879 7.693 7.925 13.226 7.925h417.733c5.533 0 10.617-3.046 13.226-7.925 2.61-4.878 2.322-10.798-.748-15.4-19.372-29.036-29.612-62.856-29.612-97.804z"/><path d="m143.533 399.533h1.067v33.2c0 8.284 6.716 15 15 15s15-6.716 15-15v-33.2h1.066c8.284 0 15-6.716 15-15s-6.716-15-15-15h-1.066v-145.667c0-39.443 10.129-78.579 29.278-113.152l41.371-74.381c2.172-3.906 6.292-6.333 10.751-6.333s8.579 2.427 10.751 6.333l41.371 74.381c19.149 34.573 29.278 73.709 29.278 113.152v145.667h-1.066c-8.284 0-15 6.716-15 15s6.716 15 15 15h1.066v33.2c0 8.284 6.716 15 15 15s15-6.716 15-15v-33.2h1.067c8.284 0 15-6.716 15-15s-6.716-15-15-15h-1.067v-145.667c0-44.516-11.428-88.677-33.048-127.711l-41.382-74.402c-7.463-13.418-21.629-21.753-36.97-21.753s-29.507 8.335-36.97 21.753l-41.382 74.402c-21.62 39.034-33.048 83.195-33.048 127.711v145.667h-1.067c-8.284 0-15 6.716-15 15s6.716 15 15 15z"/></g></svg>