<svg id="Layer_1" enable-background="new 0 0 512 512" height="512" viewBox="0 0 512 512" width="512" xmlns="http://www.w3.org/2000/svg"><g clip-rule="evenodd" fill-rule="evenodd"><path d="m228.573 341.031c-16.449-28.271-46.955-45.818-79.702-45.818-32.861 0-63.468 17.671-79.875 46.117-.002.004-.005.008-.007.012l-66.968 115.97c-5.74 9.941 1.434 22.369 12.913 22.369h133.937c32.859 0 63.466-17.668 79.875-46.108 16.413-28.445 16.413-63.787 0-92.231-.059-.103-.117-.207-.173-.311zm-79.897 61.611c-8.251 0-15-6.728-15-15 0-8.28 6.749-15 15-15 8.25 0 15 6.72 15 15 0 8.273-6.751 15-15 15z"/><path d="m509.981 457.321c-22.601-39.149-66.963-115.991-66.963-115.991-16.409-28.446-47.015-46.117-79.876-46.117-32.747 0-63.255 17.549-79.704 45.821-.056.103-.114.205-.172.307-16.412 28.445-16.412 63.787 0 92.232 16.409 28.44 47.016 46.108 79.876 46.108h133.92c11.479 0 18.658-12.419 12.919-22.36zm-146.643-54.679c-8.251 0-15-6.728-15-15 0-8.28 6.749-15 15-15 8.25 0 15 6.72 15 15 0 8.273-6.751 15-15 15z"/><path d="m336.076 247.988c16.414-28.446 16.414-63.786.001-92.231l-66.97-115.979c-5.74-9.941-20.084-9.947-25.824-.006 0 0-66.957 115.984-66.956 115.982 0-.001-.001.002-.001.003-16.413 28.445-16.413 63.785 0 92.229 16.409 28.449 47.015 46.12 79.876 46.12 32.86 0 63.466-17.671 79.874-46.118zm-79.778-31.37c-8.325 0-15-6.72-15-15s6.675-15 15-15c8.251 0 15 6.72 15 15s-6.749 15-15 15z"/></g></svg>