<svg id="Layer_1" enable-background="new 0 0 512 512" height="512" viewBox="0 0 512 512" width="512" xmlns="http://www.w3.org/2000/svg"><g><path d="m121.253 227.066 25.557-81.006c5.674-17.984 22.146-30.611 40.987-31.42 30.277-1.223 41.89 23.832 43.526 27.799l34.075 82.604 17.426-26.139c8.363-12.547 22.36-20.039 37.442-20.039 15.079 0 29.075 7.49 37.441 20.037l18.775 28.163h111.424c14.846-26.839 24.094-56.779 24.094-91.565 0-74.715-60.785-135.5-135.5-135.5-52.415 0-97.976 29.917-120.503 73.571-22.528-43.653-68.088-73.571-120.497-73.571-74.715 0-135.5 60.785-135.5 135.5 0 34.786 9.247 64.726 24.09 91.566z"/><path d="m320.832 304.144-27.39 41.084c-8.361 12.546-22.358 20.039-37.439 20.039-23.754 0-37.038-16.775-41.603-27.84l-19.234-46.63c-7.243 15.914-23.065 26.27-40.924 26.27h-54.817c8.493 7.982 17.123 15.842 25.713 23.665 52.795 48.078 102.661 93.49 115.984 158.408.005.025.01.051.016.077l.185.876c1.463 6.942 7.589 11.907 14.677 11.907h.078c7.121-.037 13.235-5.076 14.632-12.059 13.066-65.346 63.139-110.943 116.151-159.218 8.588-7.82 17.216-15.677 25.706-23.657h-60.167c-11.961 0-23.24-4.712-31.568-12.922z"/><path d="m497 257.066h-136.572l-27.681-41.521c-2.782-4.173-7.465-6.68-12.48-6.68s-9.699 2.507-12.48 6.68l-48.653 72.979-55.543-134.644c-2.406-5.833-8.223-9.523-14.508-9.267-6.304.271-11.765 4.456-13.663 10.474l-32.174 101.979h-128.246c-8.284 0-15 6.716-15 15s6.716 15 15 15h139.242c6.546 0 12.336-4.244 14.305-10.487l23.059-73.085 50.528 122.492c2.085 5.055 7.211 9.28 13.869 9.28 4.98 0 9.68-2.481 12.478-6.68l51.786-77.679 19.653 29.479c2.782 4.173 7.465 6.68 12.48 6.68h144.6c8.284 0 15-6.716 15-15s-6.716-15-15-15z"/></g></svg>