<svg id="Layer_1" enable-background="new 0 0 512 512" height="512" viewBox="0 0 512 512" width="512" xmlns="http://www.w3.org/2000/svg"><g><path d="m416.667 281.167h-16.067c-8.284 0-15 6.716-15 15v1.066h-128.533v158.533h128.533v1.066c0 8.284 6.716 15 15 15h16.067c51.789 0 95.333-41.84 95.333-95.333 0-53.512-43.554-95.332-95.333-95.332zm0 160.666h-1.067v-1.066-2.298-123.938-2.298-1.066h1.067c35.402 0 65.333 28.594 65.333 65.333 0 36.686-29.864 65.333-65.333 65.333z"/><path d="m295.537 267.233h55.796v-113.533c0 46.633-22.046 87.465-55.796 113.533z"/><path d="m143.533 267.233h64.267c61.831 0 113.533-50.057 113.533-113.533 0-62.409-50.811-113.533-113.533-113.533h-64.267c-62.516 0-113.533 50.936-113.533 113.533 0 63.401 51.625 113.533 113.533 113.533zm0-192.799h64.267c43.708 0 79.266 35.559 79.266 79.267s-35.558 79.267-79.266 79.267h-64.267c-43.708 0-79.267-35.559-79.267-79.267s35.559-79.267 79.267-79.267z"/><path d="m143.533 202.967h64.267c27.166 0 49.267-22.101 49.267-49.267s-22.101-49.267-49.267-49.267h-64.267c-27.166 0-49.267 22.101-49.267 49.267s22.101 49.267 49.267 49.267zm0-64.267h64.267c8.284 0 15 6.716 15 15s-6.716 15-15 15h-64.267c-8.284 0-15-6.716-15-15s6.716-15 15-15z"/><path d="m143.533 297.233c-.101 0-.202-.004-.303-.004-77.956-.163-143.23-63.292-143.23-143.529 0-.002 0-.004 0-.006v.006 158.533c0 80.367 65.477 143.533 143.533 143.533h83.533v-158.533h-19.266z"/></g></svg>