<svg id="Layer_1" enable-background="new 0 0 512 512" height="512" viewBox="0 0 512 512" width="512" xmlns="http://www.w3.org/2000/svg"><g><path d="m81.4 256c0-63.107 33.656-118.5 83.959-149.178-11.481-6.192-24.463-9.537-37.892-9.537-30.19 0-57.346 16.598-70.871 43.315l-54.979 108.625c-2.156 4.259-2.156 9.29 0 13.549l54.98 108.627c13.524 26.718 40.68 43.315 70.87 43.315 13.432 0 26.416-3.345 37.897-9.536-50.307-30.677-83.964-86.071-83.964-149.18z"/><path d="m156.749 198.7 99.25 171.9 99.244-171.9z"/><path d="m140.807 168.7h230.385c-26.431-34.791-68.23-57.3-115.193-57.3-46.962 0-88.761 22.509-115.192 57.3z"/><path d="m111.4 256c0 73.65 55.349 134.612 126.635 143.485l-115.277-199.659c-7.312 17.278-11.358 36.262-11.358 56.174z"/><path d="m400.6 256c0-19.915-4.047-38.901-11.361-56.182l-115.275 199.666c71.287-8.873 126.636-69.834 126.636-143.484z"/><path d="m510.383 249.225-54.979-108.626c-13.524-26.718-40.68-43.315-70.871-43.315-13.429 0-26.411 3.346-37.892 9.537 50.304 30.678 83.959 86.071 83.959 149.179 0 63.109-33.657 118.504-83.964 149.181 11.481 6.19 24.465 9.536 37.897 9.536 30.19 0 57.346-16.598 70.87-43.315l54.98-108.627c2.156-4.26 2.156-9.291 0-13.55z"/></g></svg>