<svg id="Layer_1" enable-background="new 0 0 512 512" height="512" viewBox="0 0 512 512" width="512" xmlns="http://www.w3.org/2000/svg"><g><path d="m315.048 92.276c23.58 10.101 42.266 27.831 53.711 49.586 9.111-9.843 14.693-22.997 14.693-37.435 0-30.419-24.748-55.167-55.168-55.167-20.77 0-38.889 11.541-48.298 28.543 4.083 1.374 8.129 2.91 12.131 4.625z"/><path d="m351.333 207.807v-15.009c0-31.798-18.89-60.433-48.124-72.956l-22.907-9.838c-35.15-15.06-74.414-13.729-108.349 3.536h-28.421c-25.989 0-47.133 21.144-47.133 47.133 0 12.589 4.896 24.425 13.792 33.333 8.77 8.771 20.923 13.801 33.342 13.801z"/><path d="m0 254.94c0 26.242 21.268 47.134 47.133 47.134h33.2v-94.267h-33.2c-25.486 0-47.133 20.556-47.133 47.133z"/><path d="m257.067 416.051v46.689h46.711c-13.644-13.623-32.96-32.936-46.711-46.689z"/><path d="m143.533 237.807c-11.516 0-22.89-2.65-33.2-7.556v71.823h22.467v66.875c0 71.654 67.696 93.791 79.266 93.791h15v-175.667c0-18.625-6.441-35.737-17.194-49.267h-66.339z"/><path d="m448.8 336.34c-13.491 0-25.998 4.263-36.273 11.493l9.533 9.534c22.762 22.781 29.522 56.692 17.229 86.4l-.059.143c-2.42 5.765-5.463 11.127-9.019 16.036 5.88 1.813 12.122 2.794 18.589 2.794 34.849 0 63.2-28.352 63.2-63.2s-28.352-63.2-63.2-63.2z"/><path d="m351.333 329.06v-91.253h-94.267v129.6c0 3.977 1.579 7.791 4.391 10.604.494.495 49.657 49.682 70.741 70.71 8.852 8.909 21.163 14.02 33.777 14.02 19.933 0 37.818-11.921 45.593-30.441 7.641-18.466 3.433-39.551-10.724-53.719z"/></g></svg>