<svg id="Layer_1" enable-background="new 0 0 512 512" height="512" viewBox="0 0 512 512" width="512" xmlns="http://www.w3.org/2000/svg"><g><path d="m320.267 477.733c-5.106 0-10.115-.419-15-1.213v20.48c0 8.284 6.716 15 15 15h128.533c8.284 0 15-6.716 15-15v-20.48c-4.885.794-9.894 1.213-15 1.213z"/><path d="m497 351.333h-224.934c-8.284 0-15 6.716-15 15v18.2c0 34.269 27.673 63.2 63.2 63.2h128.534c35.453 0 63.2-28.865 63.2-63.2v-18.2c0-8.284-6.716-15-15-15z"/><path d="m80.96 78.257c8.332-7.647 19.139-11.855 30.439-11.855s22.108 4.208 30.433 11.85c4.437 4.076 40.78 38.779 46.057 86.042 1.799-6.621 2.777-13.577 2.777-20.76 0-75.246-66.299-136.99-69.121-139.582-5.738-5.268-14.553-5.268-20.291 0-2.822 2.592-69.121 64.336-69.121 139.582 0 7.184.978 14.14 2.777 20.762 5.277-47.266 41.62-81.97 46.05-86.039z"/><path d="m207.8 222.8h-192.8c-8.284 0-15 6.716-15 15v19.267h222.8v-19.267c0-8.285-6.716-15-15-15z"/><path d="m0 287.066h222.8v160.667h-222.8z"/><path d="m121.545 100.351c-5.738-5.268-14.553-5.268-20.291 0-1.51 1.387-36.987 34.434-36.987 75.315 0 6.043 1.156 11.819 3.237 17.133h87.792c2.082-5.314 3.238-11.09 3.238-17.133 0-40.881-35.479-73.928-36.989-75.315z"/><path d="m0 497c0 8.284 6.716 15 15 15h192.8c8.284 0 15-6.716 15-15v-19.266h-222.8z"/><path d="m354.094 206.79c8.332-7.647 19.139-11.855 30.439-11.855s22.108 4.208 30.433 11.85c4.437 4.076 40.78 38.779 46.057 86.042 1.799-6.621 2.777-13.577 2.777-20.76 0-75.246-66.299-136.99-69.121-139.582-5.738-5.268-14.553-5.268-20.291 0-2.822 2.592-69.121 64.336-69.121 139.582 0 7.184.978 14.14 2.777 20.762 5.276-47.266 41.619-81.969 46.05-86.039z"/><path d="m394.679 228.885c-5.738-5.268-14.553-5.268-20.291 0-1.51 1.387-36.987 34.434-36.987 75.315 0 6.043 1.156 11.819 3.238 17.133h87.792c2.082-5.314 3.238-11.09 3.238-17.133-.002-40.882-35.481-73.929-36.99-75.315z"/></g></svg>