<svg id="Layer_1" enable-background="new 0 0 512 512" height="512" viewBox="0 0 512 512" width="512" xmlns="http://www.w3.org/2000/svg"><g><path d="m320.267 192.984c0-13.583-11.05-24.633-24.633-24.633s-24.634 11.05-24.634 24.633v69.083h49.267z"/><path d="m196.55 262.067h44.45v-237.434c0-13.583-11.05-24.633-24.633-24.633s-24.633 11.05-24.633 24.633v173.167c0 8.284-6.716 15-15 15s-15-6.716-15-15v-153.35c0-13.583-11.051-24.633-24.634-24.633s-24.633 11.05-24.633 24.633v254.683c20.87-22.768 50.837-37.066 84.083-37.066z"/><path d="m399.533 109.972c0-13.583-11.05-24.633-24.633-24.633s-24.633 11.05-24.633 24.633v151.847c0 18.883 2.197 60.703-33.243 96.143-23.326 23.326-51.194 29.828-61.979 31.63 9.911 12.574 15.863 28.408 15.955 45.604.044 8.163-6.369 15.148-14.528 15.398-8.499.261-15.471-6.552-15.471-14.993 0-24.468-19.872-44.382-44.324-44.45-7.85-.022-14.58-6.157-15.093-13.991-.572-8.741 6.349-16.01 14.967-16.01h39.633c41.245 0 75.649-29.853 82.744-69.083h-62.928-59.235c-46.202 0-84.025 37.19-84.296 83.392-.136 23.216 6.598 45.697 19.455 64.979 9.135 13.701 17.654 26.471 17.654 26.471 1.645 2.465 2.522 5.362 2.522 8.325v21.766c0 8.284 6.716 15 15 15h177.8c8.284 0 15-6.716 15-15v-21.766c0-3.936 1.521-7.74 4.307-10.52 22.78-22.734 35.327-52.981 35.327-85.155z"/></g></svg>