<svg id="Layer_1" enable-background="new 0 0 512 512" height="512" viewBox="0 0 512 512" width="512" xmlns="http://www.w3.org/2000/svg"><g><path d="m305.267 359.366c0-27.166-22.101-49.267-49.267-49.267s-49.267 22.101-49.267 49.267v1.067h98.533v-1.067z"/><path d="m191.717 424.7h65.008l-67.981-33.99c-8.024 1.413-14.144 8.418-14.144 16.841 0 9.47 7.679 17.149 17.117 17.149z"/><circle cx="256" cy="254.933" r="25.167"/><path d="m323.255 424.424c8.024-1.413 14.145-8.418 14.145-16.841v-.032c0-9.438-7.679-17.117-17.117-17.117h-65.008z"/><path d="m0 497c0 8.284 6.716 15 15 15h482c8.284 0 15-6.716 15-15v-354.533h-512zm176.733-134.109v-3.524c0-28.654 15.284-53.804 38.127-67.731-8.716-9.759-14.027-22.62-14.027-36.702 0-30.419 24.748-55.167 55.167-55.167s55.167 24.748 55.167 55.167c0 14.083-5.311 26.944-14.027 36.702 22.843 13.926 38.127 39.077 38.127 67.731v3.524c18.654 6.276 32.133 23.918 32.133 44.66v.032c0 25.98-21.137 47.117-47.117 47.117h-128.566c-25.98 0-47.117-21.137-47.117-47.117 0-20.768 13.479-38.416 32.133-44.692z"/><path d="m497 0h-482c-8.284 0-15 6.716-15 15v97.467h512v-97.467c0-8.284-6.716-15-15-15zm-440.767 71.233c-8.28 0-15-6.722-15-15 0-8.279 6.72-15 15-15 8.273 0 15 6.721 15 15s-6.727 15-15 15zm56.234 0c-8.28 0-15-6.722-15-15 0-8.279 6.72-15 15-15 8.273 0 15 6.721 15 15s-6.728 15-15 15zm56.233 0c-8.28 0-15-6.722-15-15 0-8.279 6.72-15 15-15 8.273 0 15 6.721 15 15s-6.727 15-15 15z"/></g></svg>