<svg id="Layer_1" enable-background="new 0 0 512 512" height="512" viewBox="0 0 512 512" width="512" xmlns="http://www.w3.org/2000/svg"><g><path d="m371.755 184.151c-5.866 2.807-12.43 4.382-19.355 4.382h-192.8c-6.925 0-13.489-1.575-19.355-4.382-7.476 14.292-11.712 30.534-11.712 47.75v138.699c0 8.284 6.716 15 15 15h224.934c8.284 0 15-6.716 15-15v-138.7c0-17.215-4.236-33.457-11.712-47.749zm-115.755 166.116c-25.989 0-47.133-21.144-47.133-47.133 0-40.882 35.478-73.93 36.988-75.316 5.737-5.268 14.554-5.268 20.291 0 1.51 1.387 36.988 34.435 36.988 75.316-.001 25.989-21.145 47.133-47.134 47.133z"/><path d="m238.867 303.134c0 9.447 7.686 17.133 17.133 17.133s17.133-7.686 17.133-17.133c0-16.242-9.37-31.728-17.133-41.769-7.763 10.041-17.133 25.527-17.133 41.769z"/><path d="m303.133 15c0-8.284-6.716-15-15-15h-64.267c-8.284 0-15 6.716-15 15v49.267h94.267z"/><path d="m159.6 158.533h192.8c8.284 0 15-6.716 15-15v-34.267c0-8.284-6.716-15-15-15h-192.8c-8.284 0-15 6.716-15 15v34.267c0 8.284 6.716 15 15 15z"/><path d="m368.467 415.6h-224.934c-8.284 0-15 6.716-15 15v34.267c0 26.026 21.039 47.134 47.133 47.134h160.667c25.551 0 47.133-20.653 47.133-47.134v-34.267c.001-8.285-6.715-15-14.999-15z"/></g></svg>