<svg id="Layer_1" enable-background="new 0 0 512 512" height="512" viewBox="0 0 512 512" width="512" xmlns="http://www.w3.org/2000/svg"><g><path d="m509.76 248.115c-1.396-2.259-30.635-48.807-76.609-65.494 20.711-44.307 8.469-97.895 7.859-100.479-1.306-5.529-5.623-9.846-11.151-11.151-2.583-.609-56.168-12.856-100.478 7.854-16.685-45.979-63.238-75.21-65.497-76.605-4.831-2.985-10.935-2.987-15.768 0-2.259 1.395-48.815 30.629-65.499 76.604-44.313-20.71-97.899-8.464-100.483-7.854-5.529 1.306-9.846 5.622-11.151 11.151-.61 2.584-12.852 56.172 7.859 100.479-45.973 16.689-75.207 63.238-76.602 65.496-2.986 4.833-2.986 10.937 0 15.77 1.396 2.258 30.628 48.808 76.603 65.495-20.711 44.308-8.469 97.895-7.859 100.479 1.306 5.528 5.622 9.845 11.149 11.15 2.584.611 56.173 12.864 100.486-7.851 16.684 45.975 63.239 75.208 65.498 76.603 2.417 1.493 5.15 2.239 7.884 2.239s5.468-.746 7.884-2.239c2.258-1.396 48.808-30.629 65.496-76.603 44.307 20.71 97.896 8.461 100.48 7.851 5.528-1.306 9.844-5.622 11.149-11.15.61-2.584 12.852-56.171-7.859-100.479 45.975-16.688 75.213-63.236 76.609-65.494 2.987-4.834 2.987-10.939 0-15.772zm-253.76 189.356c-100.065 0-181.475-81.407-181.475-181.47 0-100.064 81.409-181.47 181.475-181.47 100.061 0 181.467 81.407 181.467 181.47s-81.406 181.47-181.467 181.47z"/><path d="m181.964 187.767h-44.149l22.075 38.234z"/><path d="m256 392.467 22.073-38.233h-44.147z"/><path d="m159.89 286-22.075 38.234h44.149z"/><path d="m113.277 205.264c-5.659 15.87-8.751 32.948-8.751 50.736s3.092 34.866 8.751 50.736l29.292-50.736z"/><path d="m295.388 187.767h-78.783l-39.395 68.234 39.395 68.233h78.788l39.39-68.23-19.698-34.116z"/><path d="m255.999 119.535-22.073 38.232h44.144z"/><path d="m140.799 354.234c22.156 25.943 52.896 44.34 87.784 50.744l-29.298-50.744z"/><path d="m371.196 157.767c-22.155-25.943-52.894-44.34-87.78-50.744l29.293 50.744z"/><path d="m228.583 107.023c-34.888 6.405-65.628 24.802-87.784 50.744h58.486z"/><path d="m283.418 404.978c34.885-6.405 65.623-24.802 87.777-50.744h-58.482z"/><path d="m330.034 324.234h44.143l-22.073-38.23z"/><path d="m352.103 226.004 22.075-38.237h-44.15l11.038 19.122z"/><path d="m398.716 306.738c5.659-15.87 8.751-32.948 8.751-50.737 0-17.788-3.092-34.865-8.75-50.735l-29.293 50.739z"/></g></svg>