<svg id="Layer_1" enable-background="new 0 0 512 512" height="512" viewBox="0 0 512 512" width="512" xmlns="http://www.w3.org/2000/svg"><g><path d="m63.2 244.047c-34.849 0-63.2 28.351-63.2 63.199s28.352 63.2 63.2 63.2c6.587 0 12.941-1.016 18.917-2.895-9.852-13.683-15.717-30.439-15.717-47.92 0-26.154 6.374-50.589 17.819-71.977-6.58-2.327-13.651-3.607-21.019-3.607z"/><path d="m336.333 276.18h-192.735c-26.068 0-47.133 21.115-47.133 47.134s21.048 47.133 47.133 47.133h192.735c25.548 0 47.134-20.649 47.134-47.133 0-26.436-21.54-47.134-47.134-47.134z"/><path d="m273.395 246.18-20.675-62.023c-25.211 6.302-46.55 11.636-59.233 14.806-31.015 7.754-56.95 26.357-74.192 51.163 7.647-2.546 15.813-3.946 24.304-3.946z"/><path d="m413.502 143.958c-35.319 8.832-86.339 21.588-131.592 32.901l23.108 69.32h31.315c12.529 0 24.358 3.022 34.829 8.345l46.572-9.314v14.884h94.266v-39.237c0-51.575-48.441-89.402-98.498-76.899z"/><path d="m417.733 323.314c0 25.989 21.002 47.133 47.133 47.133 25.549 0 47.134-20.65 47.134-47.133v-33.22h-94.267z"/></g></svg>