<svg id="Layer_1" enable-background="new 0 0 512 512" height="512" viewBox="0 0 512 512" width="512" xmlns="http://www.w3.org/2000/svg"><g><path d="m368.467 146.733c4.548 0 9.031.284 13.435.827-5.335-20.175-23.74-35.093-45.569-35.093s-40.233 14.918-45.568 35.093c4.404-.542 8.887-.827 13.436-.827z"/><path d="m238.996 211h194.675c-14.318-20.683-38.199-34.267-65.204-34.267h-64.267c-27.004 0-50.885 13.584-65.204 34.267z"/><path d="m206.733 159.6c0-71.462 58.138-129.6 129.6-129.6s129.601 58.138 129.601 129.6v54.568c10.798 2.772 20.902 7.29 30 13.227v-67.795c0-88.004-71.597-159.6-159.601-159.6s-159.6 71.596-159.6 159.6v67.794c9.098-5.936 19.202-10.454 30-13.227z"/><path d="m440.767 241h-208.867c-39.278 0-71.233 31.955-71.233 71.233v152.633c0 26.077 21.094 47.134 47.133 47.134h257.066c25.603 0 47.134-20.7 47.134-47.134v-152.633c0-39.278-31.955-71.233-71.233-71.233z"/><path d="m32.115 224.934h-16.609c-8.563 0-15.506 6.942-15.506 15.506v33.217c0 8.564 6.943 15.506 15.506 15.506 9.783 0 17.712 7.97 17.712 17.712v33.218c0 63.929 40.646 118.531 97.448 139.355v-155.964c.001-54.514-44.128-98.55-98.551-98.55z"/></g></svg>