<svg id="Layer_1" enable-background="new 0 0 512 512" height="512" viewBox="0 0 512 512" width="512" xmlns="http://www.w3.org/2000/svg"><g><path d="m258.213 150.667h88.12c20.512 0 38.541-10.841 48.656-27.093 4.115-6.611-.774-15.173-8.561-15.173h-179.616c-8.726 0-13.3 10.427-7.342 16.802 14.813 15.847 35.84 25.464 58.743 25.464z"/><path d="m364.418 180.667c-71.451 0-129.552 58.1-129.552 129.515v.006.013c0 8.565-7.179 15.454-15.848 14.977-7.99-.44-14.131-7.321-14.152-15.323-.187-71.266-58.223-129.187-129.533-129.187h-60.333c-8.284 0-15 6.716-15 15v12.267c0 8.284 6.716 15 15 15h60.333c48.181 0 87.367 39.248 87.266 87.451-.017 8.211-6.789 14.815-15 14.815h-78.399c-8.284 0-15 6.716-15 15v12.267c0 8.284 6.716 15 15 15h114.533c28.58 0 51.606 23.371 51.125 52.013-.47 28.033-23.923 50.254-51.96 50.254h-165.732c-7.786 0-12.674 8.56-8.562 15.172 10.111 16.254 28.136 27.093 48.645 27.093h126.484c51.582 0 93.4-41.731 93.4-93.4v-108.418c0-48.266 39.063-87.248 87.248-87.248 58.411 0 105.352 47.249 105.352 105.315 0 49.074-33.711 90.41-79.187 102.067-6.586 1.688-11.146 7.692-11.146 14.492v12.664c0 9.7 9.052 16.781 18.501 14.589 64.883-15.048 114.099-73.158 114.099-143.776 0-81.677-66.069-147.618-147.582-147.618z"/><circle cx="292.133" cy="39.2" r="39.2"/></g></svg>