<svg id="Layer_1" enable-background="new 0 0 512 512" height="512" viewBox="0 0 512 512" width="512" xmlns="http://www.w3.org/2000/svg"><g><path d="m219.867 42.267h72.267c11.653 0 21.133-9.48 21.133-21.133v-21.134h-114.534v21.134c0 11.652 9.481 21.133 21.134 21.133z"/><circle cx="256" cy="183.7" r="25.167"/><path d="m305.267 288.133c0-27.166-22.101-49.267-49.267-49.267s-49.267 22.101-49.267 49.267v1.067h98.533v-1.067z"/><path d="m352.4 0h-9.133v21.134c0 28.194-22.938 51.133-51.133 51.133h-72.267c-28.195 0-51.133-22.938-51.133-51.133v-21.134h-9.134c-43.708 0-79.267 35.559-79.267 79.267v353.467c0 43.708 35.559 79.267 79.267 79.267h192.8c43.708 0 79.267-35.559 79.267-79.267v-353.467c0-43.708-35.559-79.267-79.267-79.267zm0 447.733h-192.8c-8.284 0-15-6.716-15-15s6.716-15 15-15h192.8c8.284 0 15 6.716 15 15s-6.716 15-15 15zm15-111.384c0 25.98-21.137 47.117-47.117 47.117h-128.566c-25.98 0-47.117-21.137-47.117-47.117 0-20.768 13.479-38.416 32.133-44.692v-3.524c0-28.654 15.284-53.804 38.127-67.731-8.716-9.759-14.027-22.62-14.027-36.702 0-30.419 24.748-55.167 55.167-55.167s55.167 24.748 55.167 55.167c0 14.083-5.311 26.944-14.027 36.702 22.843 13.926 38.127 39.077 38.127 67.731v3.524c18.654 6.276 32.133 23.918 32.133 44.66z"/><path d="m320.283 319.2h-65.008l67.981 33.99c8.024-1.413 14.145-8.418 14.145-16.841v-.032c-.001-9.439-7.68-17.117-17.118-17.117z"/><path d="m174.6 336.317c0 9.471 7.679 17.149 17.117 17.149h65.008l-67.981-33.99c-8.023 1.413-14.144 8.418-14.144 16.841z"/></g></svg>