<svg id="Layer_1" enable-background="new 0 0 512 512" height="512" viewBox="0 0 512 512" width="512" xmlns="http://www.w3.org/2000/svg"><g><path d="m257.066 111.4c0 9.444-7.694 17.133-17.133 17.133h-64.267c-8.284 0-15 6.716-15 15s6.716 15 15 15h64.267c25.606 0 47.133-20.701 47.133-47.133 0-25.989-21.144-47.134-47.133-47.134h-192.8c-9.447.001-17.133-7.685-17.133-17.132 0-9.555 7.751-17.134 17.133-17.134h64.267c8.284 0 15-6.716 15-15s-6.716-15-15-15h-64.267c-26.077 0-47.133 21.096-47.133 47.134 0 25.989 21.144 47.133 47.133 47.133h192.8c9.447 0 17.133 7.686 17.133 17.133z"/><path d="m111.4 128.533h-32.133c-8.284 0-15 6.716-15 15s6.716 15 15 15h32.133c8.284 0 15-6.716 15-15s-6.716-15-15-15z"/><path d="m175.667 30h192.8c8.284 0 15-6.716 15-15s-6.716-15-15-15h-192.8c-8.284 0-15 6.716-15 15s6.715 15 15 15z"/><path d="m477.05 1.62c-25.219-6.753-51.011 8.227-57.724 33.327l-41.591 155.2c-5.367 20.068 3.036 40.591 19.486 51.481l-9.015 33.638h31.059l6.964-25.987c18.04-1.212 36.579-12.426 42.568-34.742l41.579-155.186c6.751-25.158-8.159-50.988-33.326-57.731z"/><path d="m447.207 316.319c-1.78-6.525-7.708-11.053-14.472-11.053h-224.933c-6.764 0-12.692 4.527-14.471 11.053l-48.201 176.734c-1.23 4.511-.287 9.337 2.551 13.052 2.837 3.716 7.245 5.896 11.92 5.896h321.333c4.675 0 9.083-2.18 11.92-5.896 2.838-3.715 3.781-8.541 2.551-13.052z"/></g></svg>