<svg id="Layer_1" enable-background="new 0 0 512 512" height="512" viewBox="0 0 512 512" width="512" xmlns="http://www.w3.org/2000/svg"><g><path d="m457.934 256c7.112-5.135 13.418-11.45 18.614-18.776 13.662-19.25 18.212-43.438 12.48-66.366l-9.769-39.002c-.681-2.716-2.106-5.187-4.118-7.133 0 0-13.064-12.647-28.896-27.956-16.967-16.426-40.191-24.575-63.696-22.378-8.948.834-17.575 3.14-25.583 6.734-.891-8.732-3.207-17.355-6.958-25.522-9.851-21.459-28.522-37.488-51.229-43.978l-38.652-11.045c-2.694-.771-5.55-.771-8.244-.001l-38.665 11.046c-22.705 6.489-41.376 22.519-51.227 43.976-3.751 8.167-6.067 16.791-6.958 25.523-8.005-3.593-16.627-5.897-25.569-6.732-23.523-2.206-46.744 5.954-63.705 22.371-15.837 15.314-28.902 27.962-28.902 27.962-2.011 1.947-3.438 4.418-4.118 7.133l-9.77 39.008c-5.728 22.912-1.18 47.098 12.479 66.356 5.198 7.328 11.506 13.644 18.619 18.78-7.113 5.136-13.421 11.452-18.619 18.78-13.659 19.259-18.207 43.444-12.479 66.356l9.77 39.008c.68 2.715 2.106 5.186 4.118 7.133 0 0 13.065 12.647 28.902 27.962 16.96 16.417 40.181 24.577 63.705 22.371 8.943-.834 17.565-3.139 25.569-6.732.891 8.731 3.207 17.355 6.958 25.523 9.85 21.457 28.522 37.486 51.227 43.976l38.665 11.046c2.694.77 5.55.771 8.244-.001l38.653-11.045c22.707-6.489 41.379-22.519 51.229-43.978 3.751-8.167 6.067-16.791 6.958-25.522 8.008 3.594 16.635 5.9 25.583 6.734 23.505 2.197 46.729-5.952 63.696-22.378 15.831-15.309 28.896-27.956 28.896-27.956 2.012-1.946 3.438-4.417 4.118-7.133l9.769-39.002c5.731-22.929 1.182-47.116-12.48-66.366-5.196-7.326-11.503-13.641-18.615-18.776zm-201.93 175.667c-96.863 0-175.667-78.804-175.667-175.667s78.804-175.667 175.667-175.667 175.667 78.804 175.667 175.667-78.804 175.667-175.667 175.667z"/><path d="m256.003 110.333c-80.321 0-145.667 65.346-145.667 145.667s65.346 145.667 145.667 145.667 145.667-65.346 145.667-145.667-65.346-145.667-145.667-145.667zm.001 257.067c-61.426 0-111.4-49.974-111.4-111.4 0-30.848 12.981-60.597 35.616-81.62 5.259-4.883 13.24-5.358 19.04-1.133 5.801 4.226 7.795 11.968 4.759 18.471-3.527 7.553-5.315 15.666-5.315 24.115 0 31.596 25.705 57.301 57.3 57.301 31.596 0 57.3-25.705 57.3-57.301 0-8.437-1.79-16.554-5.319-24.124-3.031-6.504-1.033-14.243 4.769-18.466 5.801-4.221 13.78-3.746 19.037 1.14 22.634 21.029 35.614 50.777 35.614 81.617-.001 61.427-49.975 111.4-111.401 111.4z"/><path d="m256.004 303.134c-36.661 0-68.118-22.718-81.032-54.814-.244 2.545-.368 5.107-.368 7.681 0 44.885 36.516 81.4 81.4 81.4 44.885 0 81.4-36.516 81.4-81.4 0-2.573-.124-5.137-.368-7.681-12.914 32.095-44.371 54.814-81.032 54.814z"/></g></svg>