<svg id="Layer_1" enable-background="new 0 0 511.993 511.993" height="512" viewBox="0 0 511.993 511.993" width="512" xmlns="http://www.w3.org/2000/svg"><g><path d="m177.823 462.726h-6.093c-8.284 0-15-6.716-15-15s6.716-15 15-15h12.518c2.373-5.459 5.347-10.599 8.845-15.33l-33.183-33.184c-3.671-3.669-6.625-7.863-8.802-12.411l-33.973 33.973c-18.941 16.29-25.951 42.832-17.434 66.368 8.628 23.836 31.472 39.851 56.843 39.851h37.941c-10.439-13.293-16.689-30.025-16.689-48.2 0-.358.022-.71.027-1.067z"/><path d="m394.858 405.774-33.973-33.973c-2.177 4.549-5.133 8.745-8.805 12.416l-33.181 33.18c3.499 4.731 6.472 9.87 8.846 15.33h12.519c8.284 0 15 6.716 15 15s-6.716 15-15 15h-6.094c.005.356.027.709.027 1.066 0 18.175-6.25 34.907-16.689 48.2h37.942c25.373 0 48.216-16.016 56.841-39.851 8.518-23.535 1.509-50.077-17.433-66.368z"/><ellipse cx="255.996" cy="463.793" rx="48.2" ry="48.2" transform="matrix(.16 -.987 .987 .16 -242.814 642.192)"/><path d="m215.219 397.095c11.881-7.291 25.845-11.503 40.777-11.503s28.896 4.212 40.777 11.503l34.096-34.095c2.813-2.813 4.394-6.628 4.394-10.606v-81.4h-158.533v81.4c0 3.979 1.58 7.794 4.394 10.606z"/><path d="m335.263 32.134c0-17.719-14.415-32.134-32.133-32.134-17.719 0-32.134 14.415-32.134 32.134v48.192h64.267z"/><path d="m240.997 32.134c0-17.719-14.415-32.134-32.134-32.134-17.718 0-32.133 14.415-32.133 32.134v48.192h64.267z"/><path d="m335.263 110.326h-64.267v81.4c0 8.284-6.716 15-15 15s-15-6.716-15-15v-81.4h-64.266v130.667h158.533z"/></g></svg>