<svg id="Layer_1" enable-background="new 0 0 512 512" height="512" viewBox="0 0 512 512" width="512" xmlns="http://www.w3.org/2000/svg"><g><path d="m187.348 130.667h137.305c-13.463-35.242-6.051-76.707 22.29-105.063 4.288-4.29 5.57-10.741 3.248-16.346s-7.792-9.258-13.858-9.258h-160.666c-6.066 0-11.535 3.653-13.857 9.258s-1.04 12.056 3.248 16.346c28.341 28.356 35.753 69.821 22.29 105.063z"/><path d="m350.19 169.925c-2.322-5.604-7.791-9.258-13.857-9.258h-160.666c-6.066 0-11.535 3.653-13.857 9.258s-1.04 12.056 3.248 16.346c28.341 28.357 35.753 69.821 22.29 105.063h137.304c-13.463-35.242-6.051-76.706 22.29-105.063 4.288-4.291 5.571-10.742 3.248-16.346z"/><path d="m350.19 330.591c-2.322-5.604-7.791-9.258-13.857-9.258h-160.666c-6.066 0-11.535 3.653-13.857 9.258s-1.04 12.056 3.248 16.346c38.428 38.449 38.428 101.011 0 139.46-4.288 4.29-5.57 10.741-3.248 16.346s7.791 9.257 13.857 9.257h160.666c6.066 0 11.535-3.653 13.857-9.258s1.04-12.056-3.248-16.346c-38.428-38.449-38.428-101.011 0-139.46 4.288-4.29 5.571-10.741 3.248-16.345z"/><path d="m497 160.667c-61.502 0-115.713 31.776-147.105 79.765-5.16 22.318.919 46.733 18.267 64.091 10.953 10.958 15.363 26.472 12.18 41.228 75.634-19.583 131.658-88.414 131.658-170.084 0-8.284-6.716-15-15-15z"/><path d="m162.105 79.765c-31.392-47.989-85.603-79.765-147.105-79.765-8.284 0-15 6.716-15 15 0 81.67 56.024 150.501 131.658 170.083-3.182-14.755 1.228-30.27 12.18-41.228 17.348-17.357 23.427-41.772 18.267-64.09z"/></g></svg>