<svg id="Layer_1" enable-background="new 0 0 512 512" height="512" viewBox="0 0 512 512" width="512" xmlns="http://www.w3.org/2000/svg"><g clip-rule="evenodd" fill-rule="evenodd"><path d="m302.195 339.475c-25.472-25.465-66.925-25.465-92.402.004-11.115 11.119-21.599 21.605-28.982 28.989 7.383 7.386 17.868 17.873 28.984 28.989 25.474 25.468 66.927 25.467 92.404-.002l28.987-28.987c-7.387-7.385-17.874-17.872-28.991-28.993zm-46.195 43.992c-8.28 0-15-6.72-15-15s6.72-15 15-15c8.273 0 15 6.72 15 15s-6.727 15-15 15z"/><path d="m444.265 227.157c-18.262 10.521-37.765 30.678-37.765 64.958v.023c0 6.469-4.083 12.375-10.268 14.272-10.298 3.158-19.732-4.458-19.732-14.276v-225.834c0-16.372-13.252-30.166-30.167-30.166-16.627 0-30.167 13.443-30.167 30.166v171.21c0 8.077-6.207 15.027-14.275 15.407-8.614.406-15.725-6.458-15.725-14.983v-207.767c.001-16.373-13.253-30.167-30.166-30.167-16.63 0-30.167 13.446-30.167 30.167v207.343c0 8.077-6.207 15.027-14.275 15.407-8.614.406-15.725-6.458-15.725-14.983v-171.634c0-16.372-13.253-30.166-30.167-30.166-16.63 0-30.167 13.445-30.167 30.166v225.41c0 8.077-6.207 15.027-14.275 15.407-8.614.406-15.725-6.458-15.725-14.983v-.019c0-34.24-19.483-54.412-37.755-64.949-10.038-5.788-22.578 1.362-22.578 12.949v142.351c.001 71.547 57.874 129.534 129.534 129.534h162.6c71.541 0 129.534-57.887 129.534-129.533v-142.354c-.001-11.583-12.533-18.738-22.569-12.956zm-81.259 151.916-39.596 39.597c-37.169 37.157-97.65 37.167-134.828.002-20.914-20.914-39.592-39.601-39.592-39.601-5.855-5.858-5.854-15.354.002-21.211 0 0 18.677-18.677 39.586-39.595 37.176-37.166 97.658-37.164 134.83-.004 20.911 20.92 39.594 39.596 39.595 39.597 2.814 2.813 4.395 6.628 4.396 10.606.001 3.98-1.579 7.796-4.393 10.609z"/></g></svg>