<svg id="Layer_1" enable-background="new 0 0 512 512" height="512" viewBox="0 0 512 512" width="512" xmlns="http://www.w3.org/2000/svg"><g><path d="m10.503 181.678c-4.737 15.698-7.936 31.759-9.6 47.949l281.467 281.47c16.191-1.664 32.252-4.862 47.95-9.6z"/><path d="m42.556 113.756c-7.935 11.879-14.766 24.275-20.505 37.044l339.147 339.15c12.769-5.739 25.165-12.569 37.044-20.504z"/><path d="m89.609 60.832c-5.12 4.375-10.113 8.978-14.957 13.821-4.843 4.843-9.445 9.835-13.82 14.955l361.558 361.56c5.12-4.375 10.113-8.978 14.956-13.821s9.446-9.835 13.82-14.955z"/><path d="m229.63.903c-16.191 1.664-32.251 4.862-47.949 9.599l319.817 319.819c4.737-15.698 7.935-31.758 9.599-47.949z"/><path d="m512 240.85c-3.558-60.497-28.431-119.974-74.653-166.197-46.222-46.222-105.699-71.094-166.195-74.653z"/><path d="m0 271.15c3.558 60.497 28.43 119.974 74.653 166.197 46.222 46.222 105.699 71.094 166.195 74.653z"/><path d="m150.802 22.05c-12.769 5.739-25.165 12.57-37.045 20.505l355.687 355.689c7.935-11.88 14.766-24.276 20.505-37.045z"/></g></svg>