<svg id="Layer_1" enable-background="new 0 0 512 512" height="512" viewBox="0 0 512 512" width="512" xmlns="http://www.w3.org/2000/svg"><g><path d="m222.8 368.467c0 18.307 14.894 33.2 33.2 33.2s33.2-14.894 33.2-33.2c0-30.838-20.382-59.52-33.2-74.506-12.818 14.986-33.2 43.668-33.2 74.506z"/><path d="m335.267 178.176v-35.709h-158.534v35.709c-36.558 7.033-64.267 39.245-64.267 77.824v241c0 8.284 6.716 15 15 15h257.066c8.284 0 15-6.716 15-15v-241c.001-38.579-27.708-70.792-64.265-77.824zm-79.267 253.491c-34.849 0-63.2-28.352-63.2-63.2 0-58.06 50.888-105.459 53.054-107.448 5.738-5.27 14.555-5.27 20.292 0 2.167 1.989 53.055 49.389 53.055 107.448-.001 34.848-28.352 63.2-63.201 63.2z"/><path d="m228.867 0h54.267v112.467h-54.267z"/><path d="m159.6 112.467h39.267v-112.467h-39.267c-8.284 0-15 6.716-15 15v82.467c0 8.284 6.716 15 15 15z"/><path d="m367.4 97.467v-82.467c0-8.284-6.716-15-15-15h-39.267v112.467h39.267c8.285 0 15-6.716 15-15z"/></g></svg>