<svg id="Layer_1" enable-background="new 0 0 512 512" height="512" viewBox="0 0 512 512" width="512" xmlns="http://www.w3.org/2000/svg"><g><path d="m461.712 256c39.583-35.326 49.634-94.58 50.095-97.421.909-5.607-1.427-11.247-6.034-14.568-2.335-1.684-51.363-36.486-104.311-33.469 3.01-52.967-31.784-101.977-33.468-104.312-3.322-4.608-8.963-6.945-14.569-6.035-2.842.46-62.098 10.511-97.425 50.097-35.326-39.587-94.583-49.636-97.424-50.097-5.616-.903-11.248 1.428-14.569 6.035-1.684 2.335-36.478 51.344-33.467 104.311-52.962-2.987-101.977 31.786-104.312 33.469-4.607 3.322-6.943 8.962-6.034 14.569.461 2.841 10.513 62.095 50.094 97.421-39.582 35.326-49.634 94.58-50.095 97.421-.909 5.607 1.427 11.247 6.034 14.569 2.335 1.683 51.349 36.456 104.312 33.47-3.011 52.967 31.783 101.976 33.467 104.311 3.321 4.607 8.953 6.938 14.569 6.035 2.841-.461 62.097-10.511 97.424-50.097 35.327 39.586 94.583 49.636 97.424 50.097 5.606.91 11.247-1.427 14.569-6.035 1.684-2.335 36.478-51.345 33.468-104.312 52.948 3.017 101.976-31.786 104.311-33.47 4.607-3.321 6.943-8.961 6.034-14.568-.46-2.841-10.511-62.095-50.093-97.421zm-205.712 195.188c-107.625 0-195.184-87.561-195.184-195.188 0-107.622 87.559-195.18 195.184-195.18s195.184 87.558 195.184 195.18c0 107.627-87.559 195.188-195.184 195.188z"/><path d="m256 90.82c-51.194 0-97.023 23.41-127.345 60.086h254.69c-30.322-36.676-76.151-60.086-127.345-60.086z"/><path d="m90.816 256c0 81.79 59.753 149.874 137.895 162.921l-127.442-220.742c-6.75 18.006-10.453 37.488-10.453 57.821z"/><path d="m125.938 180.906 130.062 225.282 130.064-225.282z"/><path d="m421.184 256c0-20.333-3.702-39.815-10.452-57.82l-127.442 220.74c78.141-13.046 137.894-81.13 137.894-162.92z"/></g></svg>