<svg id="Layer_1" enable-background="new 0 0 512 512" height="512" viewBox="0 0 512 512" width="512" xmlns="http://www.w3.org/2000/svg"><g><path d="m206.469 175.69c0 18.562 5.824 39.54 25.428 59.144 17.492-17.503 25.428-37.406 25.428-59.144 0-18.505-5.785-39.489-25.428-59.145-19.61 19.611-25.428 40.596-25.428 59.145z"/><path d="m176.631 169.682c-17.346-10.197-33.256-11.148-42.197-11.148 0 9.23.891 35.676 23.837 58.626 10.549 10.547 23.482 17.843 37.585 21.385-12.606-18.369-19.387-40.088-19.387-62.854 0-2.001.054-4.006.162-6.009z"/><path d="m287.324 175.69c0 22.765-6.781 44.485-19.388 62.855 14.101-3.542 27.036-10.84 37.588-21.389 22.949-22.954 23.842-49.393 23.842-58.624-8.935 0-24.852.948-42.204 11.148.108 2.005.162 4.01.162 6.01z"/><path d="m466.735 259.469-43.153-71.965c-2.257-103.777-87.378-187.504-191.687-187.504-105.723 0-191.733 86.011-191.733 191.733v305.267c0 8.284 6.716 15 15 15h224.933c8.284 0 15-6.716 15-15v-65.333h56.4c21.59 0 40.376-14.612 45.685-35.532l19.54-76.935h13.775c10.884 0 21.536-4.414 29.219-12.105 11.418-11.416 16.825-31.221 7.021-47.626zm-107.369-99.869c0 29.752-11.588 57.727-32.629 78.771-21.047 21.042-49.02 32.629-78.77 32.629h-32.134c-29.754 0-57.73-11.587-78.775-32.628-21.039-21.042-32.624-49.017-32.624-78.772v-16.066c0-8.284 6.716-15 15-15h16.066c16.502 0 32.486 3.574 47.139 10.442 5.447-15.652 14.397-29.997 26.461-42.058 7.33-7.333 12.201-12.198 12.201-12.198 5.861-5.851 15.354-5.848 21.207.009l12.188 12.193c12.063 12.06 21.011 26.404 26.458 42.055 14.655-6.868 30.641-10.442 47.146-10.442h16.066c8.284 0 15 6.716 15 15z"/></g></svg>